{
    "asset": {
        "version": "2.0",
        "generator": "Open Asset Import Library (assimp v5.0.5eb040c7)"
    },
    "accessors": [
        {
            "bufferView": 0,
            "byteOffset": 0,
            "componentType": 5126,
            "count": 380,
            "type": "VEC3",
            "max": [
                0.5947679877281189,
                -0.08149900287389755,
                0.837162971496582
            ],
            "min": [
                -0.5947679877281189,
                -1.0896309614181519,
                -0.053644001483917239
            ]
        },
        {
            "bufferView": 1,
            "byteOffset": 0,
            "componentType": 5126,
            "count": 380,
            "type": "VEC3",
            "max": [
                0.9912604093551636,
                0.9846213459968567,
                0.9489721655845642
            ],
            "min": [
                -0.9912604093551636,
                -0.9964612722396851,
                -0.9964278936386108
            ]
        },
        {
            "bufferView": 2,
            "byteOffset": 0,
            "componentType": 5125,
            "count": 504,
            "type": "SCALAR",
            "max": [
                379
            ],
            "min": [
                0
            ]
        },
        {
            "bufferView": 3,
            "byteOffset": 0,
            "componentType": 5126,
            "count": 1020,
            "type": "VEC3",
            "max": [
                0.6796630024909973,
                1.0308940410614014,
                0.9770879745483398
            ],
            "min": [
                -0.6796630024909973,
                -0.5259780287742615,
                -0.9765840172767639
            ]
        },
        {
            "bufferView": 4,
            "byteOffset": 0,
            "componentType": 5126,
            "count": 1020,
            "type": "VEC3",
            "max": [
                0.9991464614868164,
                0.992710530757904,
                0.9933285713195801
            ],
            "min": [
                -0.9991464614868164,
                -0.9969392418861389,
                -0.9992760419845581
            ]
        },
        {
            "bufferView": 5,
            "byteOffset": 0,
            "componentType": 5125,
            "count": 1284,
            "type": "SCALAR",
            "max": [
                1019
            ],
            "min": [
                0
            ]
        }
    ],
    "buffers": [
        {
            "byteLength": 40752,
            "uri": "result.bin"
        }
    ],
    "bufferViews": [
        {
            "buffer": 0,
            "byteOffset": 0,
            "byteLength": 4560,
            "target": 34962
        },
        {
            "buffer": 0,
            "byteOffset": 4560,
            "byteLength": 4560,
            "target": 34962
        },
        {
            "buffer": 0,
            "byteOffset": 9120,
            "byteLength": 2016,
            "target": 34963
        },
        {
            "buffer": 0,
            "byteOffset": 11136,
            "byteLength": 12240,
            "target": 34962
        },
        {
            "buffer": 0,
            "byteOffset": 23376,
            "byteLength": 12240,
            "target": 34962
        },
        {
            "buffer": 0,
            "byteOffset": 35616,
            "byteLength": 5136,
            "target": 34963
        }
    ],
    "materials": [
        {
            "name": "DefaultMaterial",
            "pbrMetallicRoughness": {
                "baseColorFactor": [
                    0.6000000238418579,
                    0.6000000238418579,
                    0.6000000238418579,
                    1.0
                ],
                "metallicFactor": 0.0
            }
        },
        {
            "name": "Material",
            "pbrMetallicRoughness": {
                "baseColorFactor": [
                    0.6000000238418579,
                    0.6000000238418579,
                    0.6000000238418579,
                    1.0
                ],
                "metallicFactor": 0.0
            }
        }
    ],
    "meshes": [
        {
            "name": "Cube.001",
            "primitives": [
                {
                    "mode": 4,
                    "material": 1,
                    "indices": 2,
                    "attributes": {
                        "POSITION": 0,
                        "NORMAL": 1
                    }
                }
            ]
        },
        {
            "name": "Cube",
            "primitives": [
                {
                    "mode": 4,
                    "material": 1,
                    "indices": 5,
                    "attributes": {
                        "POSITION": 3,
                        "NORMAL": 4
                    }
                }
            ]
        }
    ],
    "nodes": [
        {
            "name": "input.obj",
            "children": [
                1,
                2
            ]
        },
        {
            "name": "Cube.001",
            "mesh": 0
        },
        {
            "name": "Cube",
            "mesh": 1
        }
    ],
    "scenes": [
        {
            "nodes": [
                0
            ]
        }
    ],
    "scene": 0
}